<svg width="1238" height="661" viewBox="0 0 1238 661" fill="none" xmlns="http://www.w3.org/2000/svg">
<path opacity="0.3" d="M10 375.856C10 375.856 130 34.3564 180.5 63.3564C231 92.3564 189 341.856 219.5 336.856C250 331.856 305.5 85.3564 358 120.856C410.5 156.356 278.5 435.356 305.5 436.856C332.5 438.356 584.5 -17.1436 613 92.3564C641.5 201.856 329 584.856 466 635.856C603 686.856 721 -53.1436 778.5 14.3564C836 81.8564 610 755.356 745 635.856C880 516.356 915.5 120.856 989.5 53.3564C1063.5 -14.1436 938.5 633.856 1025 559.856C1111.5 485.856 1228 63.3564 1228 63.3564" stroke="#000AC0" stroke-width="20" stroke-linecap="round"/>
</svg>
